<?xml version="1.0"?>
<svg xmlns="http://www.w3.org/2000/svg" id="_x31__px" enable-background="new 0 0 24 24" height="30px" viewBox="0 0 24 24" width="30px"><g><path d="m9.02 21h-6.52c-1.378 0-2.5-1.121-2.5-2.5v-14c0-1.379 1.122-2.5 2.5-2.5h12c1.378 0 2.5 1.121 2.5 2.5v4.06c0 .276-.224.5-.5.5s-.5-.224-.5-.5v-4.06c0-.827-.673-1.5-1.5-1.5h-12c-.827 0-1.5.673-1.5 1.5v14c0 .827.673 1.5 1.5 1.5h6.52c.276 0 .5.224.5.5s-.224.5-.5.5z" data-original="#000000" class="active-path" data-old_color="#000000" fill="#FFFFFF"/><path d="m3.5 5c-.276 0-.5-.224-.5-.5v-4c0-.276.224-.5.5-.5s.5.224.5.5v4c0 .276-.224.5-.5.5z" data-original="#000000" class="active-path" data-old_color="#000000" fill="#FFFFFF"/><path d="m8.5 5c-.276 0-.5-.224-.5-.5v-4c0-.276.224-.5.5-.5s.5.224.5.5v4c0 .276-.224.5-.5.5z" data-original="#000000" class="active-path" data-old_color="#000000" fill="#FFFFFF"/><path d="m13.5 5c-.276 0-.5-.224-.5-.5v-4c0-.276.224-.5.5-.5s.5.224.5.5v4c0 .276-.224.5-.5.5z" data-original="#000000" class="active-path" data-old_color="#000000" fill="#FFFFFF"/><path d="m10.02 13h-6.52c-.276 0-.5-.224-.5-.5s.224-.5.5-.5h6.52c.276 0 .5.224.5.5s-.224.5-.5.5z" data-original="#000000" class="active-path" data-old_color="#000000" fill="#FFFFFF"/><path d="m8.5 9h-5c-.276 0-.5-.224-.5-.5s.224-.5.5-.5h5c.276 0 .5.224.5.5s-.224.5-.5.5z" data-original="#000000" class="active-path" data-old_color="#000000" fill="#FFFFFF"/><path d="m17.5 24c-3.584 0-6.5-2.916-6.5-6.5s2.916-6.5 6.5-6.5 6.5 2.916 6.5 6.5-2.916 6.5-6.5 6.5zm0-12c-3.033 0-5.5 2.468-5.5 5.5s2.467 5.5 5.5 5.5 5.5-2.468 5.5-5.5-2.467-5.5-5.5-5.5z" data-original="#000000" class="active-path" data-old_color="#000000" fill="#FFFFFF"/><path d="m15.379 20.121c-.128 0-.256-.049-.354-.146-.195-.195-.195-.512 0-.707l4.242-4.242c.195-.195.512-.195.707 0s.195.512 0 .707l-4.242 4.242c-.097.097-.225.146-.353.146z" data-original="#000000" class="active-path" data-old_color="#000000" fill="#FFFFFF"/><path d="m19.621 20.121c-.128 0-.256-.049-.354-.146l-4.242-4.242c-.195-.195-.195-.512 0-.707s.512-.195.707 0l4.242 4.242c.195.195.195.512 0 .707-.097.097-.225.146-.353.146z" data-original="#000000" class="active-path" data-old_color="#000000" fill="#FFFFFF"/></g> </svg>
